<?xml version="1.0" encoding="UTF-8" standalone="no"?>
<!-- Created with Inkscape (http://www.inkscape.org/) -->

<svg
   width="210mm"
   height="61mm"
   viewBox="0 0 210 61"
   version="1.1"
   id="svg1"
   xml:space="preserve"
   inkscape:version="1.3 (0e150ed6c4, 2023-07-21)"
   sodipodi:docname="logo_pecom.svg"
   xmlns:inkscape="http://www.inkscape.org/namespaces/inkscape"
   xmlns:sodipodi="http://sodipodi.sourceforge.net/DTD/sodipodi-0.dtd"
   xmlns="http://www.w3.org/2000/svg"
   xmlns:svg="http://www.w3.org/2000/svg"><sodipodi:namedview
     id="namedview1"
     pagecolor="#ffffff"
     bordercolor="#000000"
     borderopacity="0.25"
     inkscape:showpageshadow="2"
     inkscape:pageopacity="0.0"
     inkscape:pagecheckerboard="0"
     inkscape:deskcolor="#d1d1d1"
     inkscape:document-units="mm"
     inkscape:zoom="0.73139029"
     inkscape:cx="628.25554"
     inkscape:cy="234.48493"
     inkscape:window-width="1920"
     inkscape:window-height="1017"
     inkscape:window-x="-8"
     inkscape:window-y="-8"
     inkscape:window-maximized="1"
     inkscape:current-layer="layer1" /><defs
     id="defs1" /><g
     inkscape:label="Capa 1"
     inkscape:groupmode="layer"
     id="layer1"><path
       style="fill:#002551;fill-opacity:1;stroke-width:0.353832"
       d="m 50.475788,59.326954 -0.04393,-0.04391 -2.298072,-0.0086 -2.298074,-0.0086 -0.175635,-1.374832 -0.175634,-1.374851 0.0018,-2.574489 0.0018,-2.574508 0.165756,-1.35555 0.165753,-1.35556 0.04407,-0.04411 0.04407,-0.04411 6.152233,-0.08003 6.152236,-0.08003 8.8001,0.05345 8.800103,0.05345 0.943753,0.05716 0.943755,0.05716 0.111456,0.947869 0.111456,0.947869 0.1063,1.663697 0.106301,1.663689 -0.110175,1.844254 -0.110175,1.844256 -0.104922,0.853765 -0.10492,0.853756 -3.37239,0.06173 -3.37239,0.06173 H 60.740155 50.519886 Z m 34.869748,-1.730993 -0.296584,-0.07069 -0.431052,-0.252617 -0.431053,-0.252616 -0.228308,-0.345892 -0.228309,-0.345892 -0.161282,-0.421277 -0.161282,-0.421285 -0.0062,-1.872359 -0.0062,-1.87236 0.16911,-0.484742 0.16911,-0.484732 0.269883,-0.372566 0.269885,-0.372557 0.611617,-0.301099 0.611616,-0.301097 0.827868,0.03954 0.827867,0.03963 0.508784,0.284132 0.508783,0.284131 0.311473,0.458192 0.311473,0.458191 -0.204821,0.165848 -0.204823,0.165859 -0.15346,-0.0039 -0.15346,-0.0039 -0.24702,-0.357515 -0.247018,-0.357524 -0.439322,-0.212671 -0.43932,-0.212672 -0.638817,0.04573 -0.638816,0.04573 -0.337393,0.208519 -0.337393,0.208518 -0.241938,0.412836 -0.241937,0.412835 -0.101932,0.982841 -0.101931,0.982841 0.100614,1.082612 0.100612,1.082614 0.267489,0.43186 0.267489,0.43186 0.412601,0.217911 0.412601,0.217912 h 0.549992 0.54999 l 0.304082,-0.127057 0.304081,-0.127046 0.293745,-0.293753 0.293746,-0.293743 0.142396,-0.44517 0.142396,-0.445168 0.02912,-0.514904 0.02912,-0.514893 -0.98299,-0.04678 -0.982991,-0.04678 v -0.280771 -0.280853 l 1.395252,-0.02601 1.395253,-0.02601 -0.05928,0.968913 -0.05928,0.968904 -0.163743,0.508168 -0.163741,0.508159 -0.470091,0.482675 -0.470092,0.482684 -0.508486,0.149243 -0.508487,0.149244 -0.521312,-0.0096 -0.521313,-0.0096 z m 14.141324,-0.05554 -0.385205,-0.14267 -0.373862,-0.320008 -0.373859,-0.320018 -0.223922,-0.495574 -0.22392,-0.495565 v -3.089391 -3.089403 l 0.345164,-0.02867 0.345169,-0.02867 0.02934,3.024478 0.02934,3.024487 0.208026,0.389029 0.208032,0.389028 0.242498,0.190761 0.242514,0.19075 0.331077,0.109261 0.331068,0.109261 0.58815,-0.03744 0.58816,-0.03744 0.34036,-0.230315 0.34037,-0.230316 0.23245,-0.463069 0.23244,-0.463059 v -2.9774 -2.977397 h 0.37448 0.37447 l -3.7e-4,3.019181 -3.4e-4,3.019181 -0.092,0.330897 -0.092,0.330897 -0.26541,0.418047 -0.26542,0.418046 -0.49934,0.27126 -0.49934,0.271261 -0.85132,0.03163 -0.851324,0.03163 z m 14.21165,0.0067 -0.40348,-0.125942 -0.3005,-0.205908 -0.3005,-0.205908 -0.24432,-0.340614 -0.24432,-0.340615 -0.17043,-0.468099 -0.17043,-0.46808 V 53.5664 51.740845 l 0.17079,-0.468089 0.17079,-0.46809 0.26992,-0.392363 0.26992,-0.392354 0.60523,-0.297944 0.60522,-0.297954 0.82176,0.04163 0.82174,0.04163 0.37447,0.195809 0.37448,0.195801 0.29947,0.312463 0.29946,0.312463 0.19504,0.441596 0.19506,0.441606 0.10227,0.822242 0.10226,0.82224 -0.0548,1.180242 -0.0548,1.180232 -0.20443,0.551695 -0.20444,0.551705 -0.43118,0.434299 -0.4312,0.434299 -0.50847,0.150815 -0.50849,0.150807 -0.52132,-0.0067 -0.52131,-0.0067 z m 1.73146,-0.710047 0.26355,-0.09957 0.26602,-0.251493 0.26603,-0.251493 0.20207,-0.374481 0.20206,-0.374472 v -1.919163 -1.919173 l -0.20206,-0.374471 -0.20207,-0.374472 -0.26603,-0.251493 -0.26602,-0.251502 -0.26355,-0.09957 -0.26354,-0.09957 -0.43858,3.52e-4 -0.4386,3.52e-4 -0.35283,0.09799 -0.35284,0.09798 -0.31781,0.317807 -0.31781,0.317808 -0.14038,0.496469 -0.14039,0.496461 -0.0629,0.842561 -0.0629,0.842562 0.10036,0.89852 0.10036,0.898531 0.1335,0.319484 0.13349,0.319494 0.2417,0.260791 0.24169,0.2608 0.30472,0.132439 0.30473,0.132439 0.5322,0.0039 0.53222,0.0039 z m 44.54414,0.658307 -0.46886,-0.180462 -0.35785,-0.347569 -0.35783,-0.347578 -0.21486,-0.426677 -0.21485,-0.426669 -0.10526,-0.496107 -0.10527,-0.496108 9.5e-4,-1.282633 9.6e-4,-1.282643 0.12573,-0.472129 0.12573,-0.472129 0.16436,-0.346369 0.16437,-0.346368 0.37097,-0.370975 0.37096,-0.370966 0.51158,-0.191399 0.51155,-0.191399 h 0.72876 0.72876 l 0.43741,0.149043 0.43742,0.149045 0.45874,0.412444 0.45874,0.412455 0.19339,0.390866 0.19339,0.390877 -0.675,0.309748 -0.67499,0.309758 -0.14365,0.0019 -0.14364,0.0019 -0.17014,-0.288017 -0.17015,-0.288028 -0.29473,-0.17972 -0.29472,-0.179709 -0.30892,-3.53e-4 -0.3089,-3.52e-4 -0.28357,0.146633 -0.28355,0.146633 -0.17783,0.391678 -0.17782,0.391667 -0.002,1.357465 -9.6e-4,1.357456 0.10067,0.362554 0.10067,0.362562 0.2354,0.21816 0.23539,0.218159 0.40003,0.06001 0.40003,0.06001 0.29427,-0.152169 0.29426,-0.152168 0.20956,-0.328859 0.20955,-0.328859 0.23406,0.04459 0.23404,0.04468 0.53831,0.247244 0.53829,0.247244 v 0.226381 0.22639 l -0.58511,0.590764 -0.58511,0.590774 -0.50225,0.15897 -0.50224,0.15897 -0.71479,-0.0047 -0.71479,-0.0047 z m 6.81922,0.02229 -0.48378,-0.172516 -0.32886,-0.250836 -0.32885,-0.250826 -0.19757,-0.277453 -0.19756,-0.277443 -0.18343,-0.533175 -0.18345,-0.533177 v -1.613806 -1.613797 l 0.19468,-0.630271 0.19467,-0.630271 0.44279,-0.442787 0.44278,-0.442787 0.55618,-0.208404 0.55617,-0.208414 0.88937,0.03448 0.88937,0.03448 0.46327,0.226334 0.46328,0.226323 0.35181,0.362515 0.35181,0.362517 0.20783,0.531213 0.20781,0.531212 0.0394,1.451084 0.0394,1.451073 -0.10283,0.555592 -0.10282,0.555591 -0.18876,0.389944 -0.18877,0.389932 -0.34003,0.340034 -0.34003,0.340033 -0.26019,0.115177 -0.2602,0.115166 0.0311,0.05031 0.0311,0.05039 -0.2017,0.02067 -0.20171,0.02067 -0.88936,0.05183 -0.88938,0.05183 z m 1.79954,-1.57268 0.31427,-0.14913 0.19943,-0.411987 0.19944,-0.411987 -0.0322,-1.521885 -0.0322,-1.521895 -0.15893,-0.291628 -0.15896,-0.291638 -0.32253,-0.153054 -0.32253,-0.153045 -0.31352,3.53e-4 -0.31351,3.42e-4 -0.29971,0.182749 -0.29972,0.182749 -0.15194,0.293829 -0.15195,0.293829 -0.0529,1.001456 -0.0528,1.001446 0.0669,0.624717 0.0669,0.624717 0.20678,0.307566 0.20679,0.307576 0.32443,0.111738 0.32442,0.111737 0.21989,0.0057 0.21991,0.0057 z m 35.71065,1.577368 -0.4208,-0.148482 -0.51538,-0.522858 -0.51537,-0.522858 -0.17388,-0.46809 -0.17388,-0.468089 -0.049,-1.365792 -0.049,-1.365782 0.11085,-0.636577 0.11086,-0.636578 0.22484,-0.44371 0.22485,-0.443711 0.3074,-0.307405 0.30742,-0.307404 0.42233,-0.189189 0.42234,-0.189199 0.80881,-0.04067 0.80882,-0.04068 0.47099,0.156436 0.47099,0.156437 0.42276,0.372128 0.42276,0.372128 0.1932,0.312606 0.1932,0.312596 v 0.138927 0.138917 l -0.63939,0.294715 -0.63939,0.294715 -0.13297,-7.05e-4 -0.13296,-7.04e-4 -0.15835,-0.278311 -0.15836,-0.27831 -0.30973,-0.188837 -0.30973,-0.188845 -0.26046,-3.53e-4 -0.26046,-3.43e-4 -0.32766,0.136897 -0.32765,0.136908 -0.18218,0.401403 -0.18218,0.401394 -0.002,1.430686 -0.002,1.430687 0.13012,0.311396 0.1301,0.311396 0.21126,0.19681 0.21124,0.19682 0.39525,0.05925 0.39526,0.05925 0.29427,-0.152169 0.29426,-0.152178 0.20957,-0.328848 0.20955,-0.328859 0.23405,0.04467 0.23404,0.04467 0.5383,0.247234 0.53831,0.247244 v 0.166325 0.166335 l -0.2754,0.380169 -0.27538,0.380168 -0.32576,0.259924 -0.32575,0.259924 -0.40525,0.164477 -0.40525,0.164476 -0.79576,-0.0019 -0.79574,-0.0019 z m -113.514215,-0.04173 -0.04711,-0.122779 0.02447,-3.885093 0.02447,-3.885092 1.541624,-0.02582 1.541628,-0.02582 0.487722,0.101249 0.487722,0.101258 0.389469,0.282131 0.38947,0.282131 0.237823,0.519475 0.237822,0.519467 -0.0463,0.576798 -0.0463,0.576808 -0.190563,0.371718 -0.190564,0.371719 -0.221028,0.206165 -0.22103,0.206174 -0.345821,0.1445 -0.34582,0.14449 0.848442,1.725344 0.848444,1.725336 -0.06218,0.10062 -0.06218,0.10061 h -0.323629 -0.32363 l -0.872009,-1.755334 -0.87201,-1.755344 -1.043593,-0.02648 -1.043594,-0.02639 -0.02548,1.758392 -0.02548,1.758383 -0.351819,0.02906 -0.35182,0.02906 z m 3.851278,-4.434873 0.25816,-0.193028 0.189677,-0.254046 0.189677,-0.254056 v -0.492898 -0.492925 l -0.186035,-0.323847 -0.186034,-0.323858 -0.415571,-0.210632 -0.415572,-0.210643 h -1.244008 -1.244008 v 1.504632 1.504632 l 1.397776,-0.03011 1.397776,-0.03011 z m 10.753247,4.435158 -0.0472,-0.123064 0.0245,-3.885093 0.0245,-3.885092 h 1.73194 1.73193 l 0.43874,0.169306 0.43874,0.169297 0.32811,0.363183 0.32811,0.363184 0.11001,0.367193 0.11001,0.367193 -0.0359,0.709332 -0.0359,0.709341 -0.28019,0.398661 -0.28018,0.398659 -0.46429,0.239156 -0.4643,0.239166 -1.47534,0.03163 -1.47535,0.03163 -0.0255,1.700347 -0.0255,1.700336 -0.3049,0.02943 -0.30491,0.02934 z m 3.69625,-4.312361 0.41079,-0.210633 0.17648,-0.327667 0.17647,-0.327659 -0.0352,-0.539567 -0.0352,-0.539559 -0.18696,-0.250406 -0.18696,-0.250407 -0.25831,-0.193028 -0.25831,-0.193018 -1.39762,-0.03201 -1.39762,-0.03201 v 1.553283 1.553295 h 1.29081 1.29082 z m 12.68598,4.309912 -0.0463,-0.120615 0.0245,-3.885093 0.0245,-3.885092 2.05961,7.05e-4 2.05959,7.14e-4 0.49556,0.223333 0.49558,0.223331 0.3185,0.372109 0.31851,0.37211 0.14552,0.42704 0.14551,0.427048 v 0.483343 0.483341 l -0.12841,0.42664 -0.12839,0.426639 -0.2567,0.336546 -0.2567,0.336556 -0.57927,0.285169 -0.57925,0.28517 -1.13963,0.05726 -1.13963,0.05726 -0.0258,1.366697 -0.0258,1.366695 -0.86755,0.02697 -0.86755,0.02696 z m 3.67453,-4.443064 0.32992,-0.156562 0.13805,-0.33043 0.13807,-0.33044 -0.10787,-0.360038 -0.10787,-0.360049 -0.29917,-0.182406 -0.29915,-0.182415 -0.81916,-3.52e-4 -0.81916,-3.43e-4 v 1.029797 1.029798 h 0.7582 0.75821 z m 3.45869,4.494204 -0.0624,-0.0624 V 53.504003 49.54084 h 2.6681 2.66811 v 0.795748 0.795757 h -1.78251 -1.78254 l 0.0273,0.77235 0.0272,0.772351 1.45108,0.04678 1.45108,0.04678 0.0272,0.77235 0.0273,0.772341 h -1.50167 -1.50167 v 0.842571 0.842562 h 1.77873 1.77875 v 0.795748 0.795757 h -2.60571 -2.6057 z m 6.53507,-0.05097 -0.0463,-0.12075 0.0245,-3.885092 0.0245,-3.885093 h 2.10641 2.10641 l 0.51489,0.290429 0.5149,0.290428 0.29723,0.386352 0.29721,0.386341 0.11096,0.534519 0.11097,0.534518 -0.0567,0.41357 -0.0567,0.413569 -0.25434,0.467317 -0.25435,0.467319 -0.40015,0.2753 -0.40013,0.275309 0.74767,1.493162 0.74768,1.493162 v 0.141528 0.141526 h -0.92472 -0.92471 l -0.0871,-0.117024 -0.0871,-0.117015 -0.64243,-1.380873 -0.64245,-1.380862 h -0.54344 -0.54343 l -0.0258,1.47448 -0.0258,1.474481 -0.82069,0.02705 -0.82069,0.02705 z m 3.6573,-4.609772 0.32525,-0.135896 0.093,-0.244672 0.0929,-0.244662 v -0.269525 -0.269535 l -0.22582,-0.262668 -0.22583,-0.262677 -0.90963,-0.03287 -0.90963,-0.03286 -0.0801,0.126464 -0.0801,0.126476 -9.6e-4,0.756746 -9.4e-4,0.756746 0.0624,0.0624 0.0624,0.06239 h 0.73636 0.73634 z m 3.64407,4.60759 -0.0455,-0.118568 0.0245,-3.885092 0.0245,-3.885093 2.64471,-0.02486 2.64472,-0.02486 v 0.797214 0.797206 h -1.77875 -1.77875 v 0.793385 0.793366 l 1.47449,0.02582 1.47448,0.02582 0.0273,0.77235 0.0272,0.772341 h -1.50167 -1.50168 v 0.842571 0.842562 h 1.78254 1.78251 l -0.0272,0.77235 -0.0273,0.772341 -2.60027,0.02486 -2.60027,0.02486 z m 6.29286,0.05459 -0.0638,-0.06383 v -0.736398 -0.736427 l 1.69308,-2.407582 1.69309,-2.407583 -1.62288,-0.04678 -1.62288,-0.04678 -0.0273,-0.773789 -0.0273,-0.773789 2.69533,0.02486 2.69533,0.02486 0.0264,0.748944 0.0264,0.748943 -1.68147,2.387263 -1.68149,2.387262 1.65509,0.04678 1.6551,0.04678 v 0.795757 0.795749 l -2.67451,0.02477 -2.67451,0.02477 z m 23.38352,-0.05611 -0.0449,-0.117081 0.0245,-3.885093 0.0245,-3.885092 0.84256,-0.02477 0.84257,-0.02477 0.36344,0.843895 0.36346,0.843906 h 0.0708 0.0709 l -0.0129,0.117024 -0.013,0.117025 0.56171,1.285463 0.5617,1.285472 0.0516,0.0019 0.0516,0.0019 0.92402,-2.129807 0.92401,-2.129815 0.092,-0.120454 0.092,-0.120464 0.80484,0.02687 0.80484,0.02687 v 3.978777 3.978768 h -0.79575 -0.79576 l -0.0468,-2.149783 -0.0468,-2.149775 -0.70215,1.588067 -0.70213,1.588066 -0.61682,0.02734 -0.61681,0.02734 -0.4025,-0.916717 -0.40251,-0.916708 -0.24963,-0.561707 -0.24962,-0.561707 -0.10559,-0.234051 -0.10558,-0.234049 -0.007,2.270248 -0.007,2.270236 h -0.75188 -0.75187 z m 8.91668,0.05802 -0.0658,-0.06583 v -3.971069 -3.971081 l 2.03619,0.04011 2.0362,0.0401 0.35822,0.126161 0.35823,0.12616 0.40292,0.354657 0.4029,0.354657 0.19845,0.422171 0.19844,0.422171 -9.5e-4,0.726556 -9.5e-4,0.726566 -0.21975,0.47192 -0.21975,0.471909 -0.31694,0.266679 -0.31694,0.266687 -0.41452,0.177682 -0.41453,0.177689 -1.13087,0.06669 -1.13088,0.06669 -0.0467,1.357465 -0.0468,1.357455 -0.80019,0.02677 -0.80019,0.02677 z m 3.41724,-4.43837 0.34681,-0.09632 0.1915,-0.243443 0.19149,-0.243452 v -0.360364 -0.360372 l -0.27303,-0.305738 -0.27302,-0.305736 -0.94401,-0.0322 -0.94402,-0.0322 v 0.976163 0.976152 l 0.0624,0.06241 0.0624,0.06239 0.61632,-3.53e-4 0.61632,-3.52e-4 z m 2.19043,4.41924 -0.0524,-0.08497 1.3731,-3.873784 1.37312,-3.873785 0.0995,-0.06879 0.0995,-0.06878 0.81,-9.52e-4 0.80999,-9.54e-4 0.10974,0.304262 0.10974,0.30426 0.74514,2.153212 0.74513,2.153223 0.0911,0.03134 0.0911,0.03134 -0.048,0.07773 -0.048,0.07773 0.47901,1.373812 0.47902,1.373803 -0.0891,0.08907 -0.0891,0.08907 -0.82853,-0.02724 -0.82852,-0.02725 -0.23594,-0.727928 -0.23594,-0.727927 -1.35023,0.02582 -1.35023,0.02582 -0.24488,0.702139 -0.24488,0.702131 -0.85834,0.02677 -0.85833,0.02687 z m 4.43556,-3.034624 -0.002,-0.02344 -0.40631,-1.255492 -0.40632,-1.255492 -0.42751,1.2789 -0.4275,1.278889 h 0.83556 0.83556 z m 3.69718,2.99968 -0.0465,-0.121045 0.0245,-3.885093 0.0245,-3.885091 0.81572,-0.02696 0.81571,-0.02697 0.22004,0.354666 0.22004,0.354656 0.88341,1.574901 0.88343,1.57489 0.32767,0.604235 0.32766,0.604244 0.025,-2.5302 0.025,-2.5302 h 0.79525 0.79525 l -0.0244,4.002175 -0.0244,4.002175 -0.65336,0.0282 -0.65337,0.0282 -0.20357,-0.05107 -0.20357,-0.05106 -1.1941,-2.130292 -1.19411,-2.130292 -0.19578,-0.280854 -0.1958,-0.280853 -0.0468,2.434067 -0.0468,2.434066 -0.72697,0.02734 -0.72696,0.02744 z M 98.982696,44.427432 98.374182,44.392753 97.157147,44.246482 95.940112,44.100201 94.769885,43.816479 93.599658,43.532758 92.710287,43.201585 91.820915,42.870421 91.020742,42.469532 90.22057,42.068634 89.382425,41.504354 88.54428,40.940074 87.852214,40.32656 87.160145,39.713057 86.646463,39.126913 86.132779,38.540769 85.574685,37.698408 85.01659,36.856046 84.609292,36.00172 l -0.4073,-0.854318 -0.339784,-0.971437 -0.339787,-0.971428 -0.315979,-1.310661 -0.315979,-1.310651 -0.187828,-1.357456 -0.18783,-1.357465 -0.11027,-1.638318 -0.110268,-1.638319 0.05503,-2.621303 0.05503,-2.621303 0.151227,-1.404278 0.151226,-1.404268 0.03276,-0.280854 0.03276,-0.280854 0.152587,-0.829245 0.152585,-0.829245 0.321526,-1.279338 0.321526,-1.279335 0.368967,-0.946767 0.368967,-0.9467697 0.298,-0.5957577 0.298001,-0.5957547 0.334207,-0.5617087 0.334209,-0.5617077 0.521333,-0.7007457 0.521333,-0.7007954 0.730179,-0.719876 0.73018,-0.7198779 0.814518,-0.5566453 0.81452,-0.5566491 0.604343,-0.3040234 0.604344,-0.3040226 0.825421,-0.3187783 0.825424,-0.3187783 1.088713,-0.2807158 1.088714,-0.2807128 1.147271,-0.1840492 1.147271,-0.1840502 1.843251,-0.1101161 1.84326,-0.1101161 2.43781,0.1110468 2.43782,0.1110506 1.46179,0.1868796 1.4618,0.1868806 1.5915,0.3238018 1.59151,0.3238026 1.21703,0.3317354 1.21704,0.3317355 0.91278,0.2816331 0.91278,0.281636 v 4.3433569 4.3433588 l -6.06177,0.0398 -6.06177,0.0398 -0.92967,0.157242 -0.92968,0.15724 -0.64635,0.224782 -0.64636,0.224779 -0.51726,0.310884 -0.517251,0.310889 -0.395898,0.438011 -0.395889,0.438013 -0.336381,0.640125 -0.336375,0.640125 -0.195616,0.700605 -0.195617,0.700611 -0.136027,0.832387 -0.136028,0.832378 -0.107983,1.648493 -0.107984,1.648503 0.06097,1.893003 0.06097,1.893003 0.136962,1.106296 0.136961,1.106287 0.182114,0.712056 0.182113,0.712057 0.292539,0.579532 0.292556,0.579532 0.376312,0.408262 0.376332,0.408272 0.437515,0.27873 0.437525,0.278729 0.57717,0.192838 0.57718,0.192847 0.8739,0.15939 0.87392,0.159398 6.67027,0.03515 6.6703,0.03515 v 4.291641 4.29163 l -0.30426,0.111357 -0.30425,0.111366 -0.79577,0.277805 -0.79575,0.277815 -1.17023,0.324791 -1.17022,0.3248 -0.85112,0.178347 -0.85113,0.178348 -1.39571,0.23847 -1.39571,0.23846 -1.12342,0.139289 -1.12341,0.139278 -1.12341,0.09193 -1.12344,0.09193 -1.77873,0.03973 -1.778743,0.03973 z m -39.974927,-0.129743 -1.357464,-0.08069 -1.170226,-0.154217 -1.170225,-0.154216 -1.145178,-0.2246 -1.145178,-0.224598 -1.175883,-0.382551 -1.175883,-0.38256 L 49.733668,42.226644 48.799607,41.75904 48.063406,41.204296 47.327209,40.649552 46.619676,39.897446 45.912146,39.14534 45.428178,38.421766 44.94421,37.69819 44.494435,36.762012 44.044662,35.825832 43.718135,34.842838 43.391612,33.859845 43.101773,32.549194 42.811935,31.238543 42.62858,29.78746 42.445224,28.336387 42.33505,26.417214 l -0.110172,-1.919173 0.05542,-2.902156 0.05541,-2.902166 0.146026,-1.544698 0.146031,-1.544699 0.230536,-1.388792 0.230535,-1.388791 0.278531,-1.098122 0.278529,-1.098125 0.250708,-0.6961007 0.250704,-0.6960977 0.367366,-0.7741387 0.367366,-0.7741424 0.551546,-0.8174177 0.551546,-0.8173696 0.522891,-0.5374958 0.522892,-0.5374958 0.558238,-0.4645678 0.558234,-0.4645716 0.677489,-0.3956722 0.677486,-0.3956762 0.888852,-0.3630465 0.888847,-0.3630456 1.219143,-0.3240608 1.219143,-0.3240608 1.217038,-0.1801005 1.217035,-0.1800976 1.217032,-0.1179565 1.217039,-0.1179576 2.995776,0.00105 2.995781,0.00105 1.404271,0.1322903 1.404272,0.1322912 0.397877,0.00285 0.397877,0.00285 v 0.070211 0.070211 h 0.245687 0.245688 l 1.160136,0.2349022 1.160137,0.2348984 0.911224,0.2913456 0.911224,0.2913416 0.748945,0.3753836 0.748945,0.3753882 0.421281,0.2836851 0.421281,0.2836881 0.505902,0.4257382 0.505901,0.4257345 0.553119,0.6960443 0.55312,0.6960442 0.402176,0.8057034 0.402177,0.8057044 0.244915,0.7489447 0.244915,0.7489427 0.1821,0.7957534 0.182099,0.795754 0.143998,1.217035 0.143999,1.217037 0.06202,1.544697 0.06202,1.544701 -0.109175,1.217032 -0.109176,1.217034 -0.219409,0.982993 -0.219409,0.982993 -0.289249,0.749763 -0.289249,0.749753 -0.477334,0.775648 -0.477335,0.775637 -0.636171,0.636177 -0.636172,0.636167 -0.64374,0.425497 -0.64374,0.425506 -0.698676,0.349711 -0.698677,0.349713 -1.104195,0.362582 -1.104196,0.362583 -0.684091,0.141308 -0.684091,0.141299 -1.023715,0.151253 -1.023716,0.151245 -5.125591,0.04449 -5.125591,0.04449 v 0.210347 0.210348 l 0.187781,0.74052 0.187787,0.740514 0.281211,0.575035 0.281215,0.575045 0.370795,0.334994 0.370798,0.334984 0.541073,0.271536 0.541074,0.271537 0.536207,0.154502 0.536212,0.154494 0.96168,0.152739 0.96168,0.15274 7.325617,0.03944 7.325615,0.03944 v 4.435902 4.435892 l -0.645196,0.192152 -0.645197,0.192142 -1.063333,0.276262 -1.063334,0.276243 -0.889372,0.198945 -0.889371,0.198943 -1.170227,0.227029 -1.170226,0.227019 -0.280855,0.03868 -0.280854,0.03868 -1.8694,0.196619 -1.8694,0.19662 -2.764696,0.03772 -2.764695,0.03772 z m 5.633999,-25.291574 0.531813,-0.249301 0.282128,-0.389467 0.282132,-0.389476 0.109652,-0.528203 0.109656,-0.528201 -0.04396,-1.079864 -0.04396,-1.079864 -0.204023,-0.528667 -0.20402,-0.528671 -0.361836,-0.411066 -0.361833,-0.411064 -0.531933,-0.260462 -0.531934,-0.260464 -0.764833,-0.145198 -0.764833,-0.145195 -0.936179,0.04867 -0.93618,0.04867 -0.528671,0.199844 -0.528672,0.199842 -0.439576,0.386929 -0.439573,0.386929 -0.211875,0.335632 -0.211874,0.335627 -0.20027,0.561567 -0.200269,0.561571 -0.144487,0.842563 -0.144487,0.842563 -0.05795,1.246659 -0.05794,1.24667 3.501994,-0.02963 3.50199,-0.02963 z m 71.273272,25.287345 -1.21704,-0.08602 -1.40428,-0.196524 -1.40426,-0.196524 -1.17024,-0.28314 -1.17022,-0.283141 -0.85917,-0.310958 -0.85918,-0.310967 -0.8547,-0.428545 -0.85471,-0.428545 -0.7202,-0.481846 -0.72018,-0.481846 -0.99501,-0.991881 -0.99499,-0.991872 -0.6237,-0.95469 -0.62369,-0.95468 -0.3708,-0.802597 -0.37081,-0.802608 -0.38288,-1.144869 -0.38289,-1.144888 -0.2663,-1.310652 -0.26632,-1.310651 -0.14309,-1.076611 -0.14311,-1.076602 -0.10843,-1.458485 -0.10841,-1.458485 0.0505,-3.550089 0.0505,-3.550081 0.10333,-0.982993 0.10334,-0.982983 0.23442,-1.451085 0.23441,-1.45108 0.3199,-1.217034 0.3199,-1.217034 0.24564,-0.650343 0.24565,-0.6503387 0.36743,-0.7698154 0.3674,-0.7698107 0.56432,-0.8436604 0.56432,-0.8436585 0.72386,-0.7343755 0.72386,-0.7343718 0.64025,-0.4754976 0.64026,-0.4754966 0.76402,-0.4044416 0.76401,-0.4044444 0.0468,-0.053835 0.0468,-0.053835 0.0936,-3.535e-4 0.0936,-3.544e-4 0.84256,-0.310795 0.84256,-0.3107959 1.08517,-0.2651827 1.08518,-0.2651835 1.20847,-0.1925803 1.20847,-0.1925804 1.12341,-0.093551 1.12342,-0.093552 1.91917,-0.060551 1.91917,-0.060551 1.82556,0.1054137 1.82555,0.10541 0.84256,0.097583 0.84257,0.097584 0.84256,0.1420989 0.84256,0.1421026 0.23405,0.034743 0.23405,0.034743 1.02979,0.2810986 1.0298,0.2810977 0.65025,0.2447748 0.65025,0.2447699 0.84764,0.4239796 0.84765,0.4239759 0.72816,0.5230525 0.72817,0.5230526 0.82132,0.8490234 0.82132,0.8490244 0.47472,0.7035631 0.47473,0.7035614 0.42673,0.8496647 0.42673,0.8496644 0.33665,0.9671437 0.33663,0.96714 0.22543,0.896692 0.22545,0.896692 0.18845,1.029797 0.18845,1.0298 0.14557,1.217034 0.14557,1.217038 0.10927,2.502287 0.10926,2.502286 -0.11005,2.415729 -0.11005,2.415718 -0.14157,1.26078 -0.14156,1.260779 -0.23612,1.263847 -0.23612,1.263847 -0.23435,0.842562 -0.23434,0.842562 -0.27312,0.767196 -0.27311,0.767206 -0.39055,0.776751 -0.39055,0.776761 -0.47132,0.702874 -0.47133,0.702882 -0.75667,0.78545 -0.75668,0.78545 -0.71014,0.531174 -0.71013,0.531166 -0.83457,0.430698 -0.83456,0.430697 -0.74895,0.297411 -0.74894,0.297393 -1.23107,0.315702 -1.23105,0.315702 -0.92216,0.144394 -0.92215,0.144395 -1.26384,0.140261 -1.26385,0.14025 -2.62132,0.0403 -2.62129,0.0403 z m 4.79696,-12.131589 0.30332,-0.05497 -0.0507,-0.08202 -0.0507,-0.08202 0.14154,0.0543 0.14154,0.05431 0.50525,-0.231316 0.50527,-0.231315 0.2437,-0.319523 0.24371,-0.319512 0.24574,-0.536758 0.24573,-0.536757 0.17488,-0.863568 0.17487,-0.863558 0.10058,-1.170229 0.10057,-1.17023 -2.5e-4,-2.995774 -2.3e-4,-2.995784 -0.10034,-1.17022 -0.10033,-1.170228 -0.18012,-0.889301 -0.18014,-0.889297 -0.33209,-0.671924 -0.33208,-0.671923 -0.27768,-0.233654 -0.27768,-0.233652 -0.5281,-0.197587 -0.52809,-0.197588 -0.96346,-0.105201 -0.96347,-0.105198 -1.02308,0.104161 -1.02308,0.104165 -0.506,0.193521 -0.50601,0.193522 -0.19451,0.163601 -0.1945,0.163601 -0.29151,0.402428 -0.29152,0.40243 -0.19343,0.581269 -0.19344,0.581269 -0.13783,0.783943 -0.13784,0.783939 -0.10689,1.460248 -0.10691,1.460237 0.0498,3.136206 0.0499,3.136216 0.15343,1.109735 0.15342,1.109736 0.22754,0.720287 0.22755,0.720297 0.2929,0.442206 0.29291,0.442215 0.38773,0.221656 0.38773,0.221656 0.33209,0.105001 0.33208,0.105003 0.55729,0.08784 0.55729,0.08784 1.17022,-0.0443 1.17023,-0.0443 z M 1.9943451,43.549267 1.8071091,43.362031 V 22.454877 1.5475501 l 0.221103,-0.2077171 0.221103,-0.2077171 12.4407449,0.034572 12.440744,0.034572 0.982992,0.1527952 0.982988,0.1527916 0.772259,0.1480501 0.77226,0.1480472 0.958798,0.2848388 0.958796,0.2848341 0.692104,0.3197729 0.692105,0.3197757 0.793462,0.5279492 0.793462,0.5279492 0.808956,0.8127176 0.808956,0.8127175 0.535412,0.7491256 0.535411,0.7491262 0.374093,0.7424754 0.374092,0.7424697 0.276273,0.7957504 0.276272,0.7957547 0.233845,1.076608 0.233843,1.076608 0.122227,0.982989 0.122233,0.982992 -0.0068,2.38726 -0.0068,2.387262 -0.160961,1.217033 -0.160959,1.217034 -0.266811,1.123415 -0.266806,1.123415 -0.253047,0.70214 -0.25305,0.702139 -0.328608,0.655326 -0.328608,0.655326 -0.378748,0.561707 -0.378746,0.561708 -0.614943,0.642407 -0.614938,0.642408 -0.748946,0.532423 -0.748947,0.532423 -1.049645,0.535729 -1.049644,0.535718 -1.103572,0.367394 -1.103571,0.367393 -0.936178,0.188951 -0.936184,0.188951 -0.842563,0.0962 -0.842563,0.09618 -2.012789,-9.54e-4 -2.012788,-9.52e-4 -1.340639,-0.136382 -1.340634,-0.136393 -1.701954,-0.281921 -1.70195,-0.281921 -0.257449,-0.04554 -0.257453,-0.04563 v 5.942411 5.9424 l -0.187233,0.187246 -0.187237,0.187226 H 9.0156416 2.1815238 Z m 22.4366229,-22.457504 0.389563,-0.223208 0.195276,-0.264126 0.195277,-0.264125 0.177956,-0.451475 0.177954,-0.451467 0.120309,-0.746323 0.120309,-0.746324 -0.0064,-1.310652 -0.0064,-1.310654 -0.151274,-0.638254 -0.15127,-0.638249 -0.198309,-0.46098 L 25.095614,13.12495 24.73791,12.801788 24.380211,12.478626 23.889549,12.332914 23.39889,12.187203 h -3.587307 -3.587306 v 4.591153 4.591154 l 3.908557,-0.02724 3.908555,-0.02725 z m 136.409952,22.387293 -0.2456,-0.257457 -0.0924,-0.2445 -0.0924,-0.2445 0.17418,-1.487428 0.17417,-1.487435 0.71056,-5.991559 0.71056,-5.991558 0.46281,-3.88515 0.46281,-3.885159 0.23748,-2.012781 0.23748,-2.012791 0.038,-0.374475 0.038,-0.374471 0.24335,-2.059598 0.24335,-2.0596 0.1374,-1.076609 0.1374,-1.0766044 0.37915,-3.2252997 0.37916,-3.2252969 0.0541,-0.2154451 0.0541,-0.2154413 0.27782,-0.2337696 0.27782,-0.2337667 h 5.338 5.338 l 0.26927,0.1917354 0.26928,0.1917381 0.27792,0.9082761 0.27794,0.9082731 3.28613,11.23417 3.28613,11.234168 0.0528,0.140432 0.0527,0.140422 0.083,-0.187226 0.083,-0.187246 3.46585,-11.842683 3.46585,-11.8426883 0.10509,-0.260625 0.10508,-0.2606222 0.234,-0.1840635 0.23401,-0.1840607 h 5.28574 5.28575 l 0.26516,0.1888087 0.26517,0.1888116 0.0922,0.302686 0.0923,0.3026821 0.051,0.4680917 0.051,0.4680888 0.42369,3.5106796 0.42368,3.5106752 0.70225,5.89794 0.70224,5.897944 0.33131,2.731277 0.3313,2.731269 0.19083,1.575156 0.19084,1.575158 0.0418,0.421286 0.0418,0.421275 0.13908,1.123426 0.13906,1.123415 0.51846,4.34278 0.51846,4.342778 -0.10626,0.321971 -0.10625,0.321961 -0.29461,0.179634 -0.29461,0.179643 -5.44335,3.52e-4 -5.44336,3.53e-4 -0.28539,-0.266602 -0.2854,-0.266592 -0.0509,-0.224904 -0.0509,-0.224896 -0.42923,-3.604296 -0.42924,-3.604294 -0.18024,-1.497888 -0.18023,-1.497897 -0.13709,-1.170219 -0.13708,-1.17023 -0.16184,-1.357465 -0.16183,-1.357455 -0.27171,1.123416 -0.27171,1.123415 -0.87401,3.557482 -0.87401,3.557491 -0.76256,3.126585 -0.76258,3.126575 -0.13487,0.20584 -0.13487,0.205842 -0.23713,0.108041 -0.23714,0.108051 h -5.28354 -5.28354 l -0.28396,-0.257447 -0.28395,-0.257457 -1.30024,-5.242614 -1.30023,-5.242615 -0.53592,-2.200026 -0.53594,-2.200017 -0.0655,-0.123636 -0.0655,-0.123646 -0.11131,1.013011 -0.1113,1.013011 -0.27302,2.340449 -0.273,2.340459 -0.28553,2.434066 -0.28554,2.434077 -0.19786,1.632936 -0.19786,1.632926 -0.0774,0.203727 -0.0774,0.203736 -0.25366,0.199526 -0.25365,0.199534 h -5.49333 -5.49333 z"
       id="path5" /><path
       style="fill:#00518b;fill-opacity:1;stroke-width:0.0904386"
       d="m 50.012483,59.279432 c -0.348186,-0.03574 -1.415717,-0.07003 -2.372286,-0.07621 -1.726644,-0.01114 -1.739524,-0.0127 -1.781643,-0.21472 -0.36272,-1.739776 -0.448921,-6.769928 -0.154953,-9.042289 0.08837,-0.683085 0.179305,-1.260607 0.202083,-1.283385 0.02278,-0.02278 3.011342,-0.0822 6.641251,-0.132043 6.715725,-0.09222 24.491513,-0.0019 24.89201,0.126418 0.234587,0.07518 0.250478,0.132154 0.378066,1.355278 0.248629,2.383475 0.283567,3.846803 0.142515,5.968941 -0.137094,2.062583 -0.244274,3.076464 -0.334788,3.166981 -0.182219,0.182216 -25.923393,0.304366 -27.612255,0.131027 z"
       id="path13" /><path
       style="fill:#00518b;fill-opacity:1;stroke-width:0.341815"
       d="m 322.50223,217.45337 c -3.50588,-1.17511 -4.94438,-2.53028 -6.37341,-6.00418 -0.73238,-1.78039 -0.78905,-2.40479 -0.79659,-8.7776 -0.009,-7.60581 0.23646,-8.94274 2.17019,-11.82086 0.7986,-1.18861 1.61087,-1.85858 3.21175,-2.64906 1.91905,-0.94759 2.46652,-1.05809 5.24259,-1.05809 2.90294,0 3.23354,0.0752 5.20621,1.18375 2.47205,1.38921 4.38122,3.91043 3.63865,4.80517 -0.75181,0.90587 -1.92865,0.60351 -2.73611,-0.70297 -0.4576,-0.74041 -1.42419,-1.55174 -2.49541,-2.09457 -1.55388,-0.78741 -2.02448,-0.86516 -4.22805,-0.6985 -3.12582,0.23641 -4.76879,1.11848 -6.06691,3.25722 -1.31608,2.16831 -1.85785,7.74367 -1.31748,13.55816 0.31763,3.4177 0.50821,4.20075 1.35787,5.57905 1.93733,3.1427 6.19039,4.38257 9.7383,2.83894 2.86962,-1.24851 4.19766,-3.52809 4.60429,-7.90328 l 0.21345,-2.29666 -3.80469,-0.2466 c -3.65255,-0.23673 -3.80469,-0.27754 -3.80469,-1.02076 0,-0.73633 0.16291,-0.78496 3.3327,-0.99487 1.83298,-0.12138 4.15256,-0.22149 5.15461,-0.22246 l 1.82192,-0.002 -0.22486,3.5036 c -0.31967,4.98051 -1.11535,7.21637 -3.33847,9.38101 -1.35866,1.32292 -2.25495,1.87451 -3.72217,2.29069 -2.23018,0.63259 -5.06093,0.67209 -6.78369,0.0946 z"
       id="path14"
       transform="scale(0.26458333)" /><path
       style="fill:#00518b;fill-opacity:1;stroke-width:0.341815"
       d="m 343.2419,217.08515 c -0.1013,-0.26397 -0.0935,-7.0319 0.0173,-15.03985 l 0.20152,-14.5599 6.0133,0.008 c 6.84458,0.01 8.34944,0.25977 10.37917,1.72605 4.90801,3.54554 3.6099,12.46734 -2.05863,14.14882 -0.42299,0.12548 -0.76908,0.37321 -0.76908,0.55052 0,0.17731 1.38435,3.08784 3.07633,6.46785 1.69199,3.38001 3.07634,6.37781 3.07634,6.66179 0,0.36229 -0.35722,0.51632 -1.19748,0.51632 h -1.19749 l -3.31364,-6.63764 -3.31363,-6.63763 -3.9488,-0.12146 c -2.17184,-0.0668 -3.97243,-0.11775 -4.00132,-0.11321 -0.0289,0.005 -0.16464,2.93077 -0.30167,6.50273 -0.15899,4.14454 -0.38735,6.58535 -0.6311,6.74561 -0.63851,0.4198 -1.83566,0.29111 -2.03116,-0.21835 z m 14.65566,-16.47641 c 3.68844,-2.81331 3.32313,-8.01932 -0.69988,-9.97385 -1.38061,-0.67075 -2.10071,-0.75679 -6.33397,-0.75679 h -4.77626 v 5.81085 5.81085 h 5.32093 c 5.20719,0 5.34591,-0.019 6.48918,-0.89106 z"
       id="path15"
       transform="scale(0.26458333)" /><path
       style="fill:#00518b;fill-opacity:1;stroke-width:0.341815"
       d="m 375.96376,217.29135 c -2.01878,-0.83764 -3.92268,-2.65218 -4.82398,-4.59754 -0.76881,-1.65941 -0.78348,-1.91125 -0.78348,-13.44974 V 187.4854 h 0.97101 0.97101 l 0.2245,7.43447 c 0.12348,4.08896 0.22488,9.22244 0.22534,11.40774 7.6e-4,3.58733 0.0827,4.1198 0.84395,5.48176 1.56734,2.80427 3.75835,3.82109 7.49157,3.47676 3.157,-0.29118 4.40781,-1.08249 5.70246,-3.60759 l 1.00271,-1.95569 V 198.60413 187.4854 h 1.19635 1.19635 l -0.026,11.53625 c -0.0179,7.95978 -0.15041,11.85555 -0.42727,12.56618 -1.68696,4.32997 -3.85994,5.782 -9.11754,6.09253 -2.59998,0.15356 -3.52625,0.076 -4.64698,-0.38901 z"
       id="path16"
       transform="scale(0.26458333)" /><path
       style="fill:#00518b;fill-opacity:1;stroke-width:0.341815"
       d="m 398.61298,217.33722 c -0.12533,-0.12533 -0.22787,-6.89326 -0.22787,-15.03985 V 187.4854 h 6.31075 c 7.5628,0 9.30093,0.43947 11.24433,2.84304 1.61999,2.00357 2.05682,3.59943 1.82484,6.66667 -0.23562,3.11554 -1.31104,4.86553 -3.86612,6.29124 -1.44666,0.80721 -2.05933,0.93335 -4.57573,0.94204 -1.59798,0.006 -4.17441,0.10881 -5.7254,0.22955 l -2.81997,0.21952 v 6.23634 c 0,5.37141 -0.075,6.26512 -0.54068,6.44382 -0.70692,0.27127 -1.34043,0.26332 -1.62415,-0.0204 z m 13.88264,-16.21545 c 2.12822,-1.03396 2.97931,-2.82239 2.73308,-5.74316 -0.16937,-2.00911 -0.30287,-2.30855 -1.61356,-3.61924 -1.68564,-1.68564 -2.59898,-1.88127 -8.78326,-1.88127 h -4.05407 v 5.98176 5.98176 h 5.11808 c 4.50699,0 5.29498,-0.0859 6.59973,-0.71985 z"
       id="path17"
       transform="scale(0.26458333)" /><path
       style="fill:#00518b;fill-opacity:1;stroke-width:0.341815"
       d="m 429.94157,217.38906 c -3.02374,-0.95298 -5.27316,-3.23499 -6.37246,-6.46479 -0.46161,-1.35625 -0.57331,-3.02149 -0.57317,-8.54537 1.5e-4,-6.00992 0.0841,-7.08169 0.67693,-8.6414 1.10672,-2.91181 2.33299,-4.35099 4.71296,-5.53126 1.9147,-0.94953 2.46753,-1.06266 5.19313,-1.06266 3.40711,0 4.55943,0.44813 6.95466,2.70462 2.62608,2.47397 3.42365,5.8052 3.34032,13.95152 -0.0633,6.18412 -0.63776,8.20536 -3.15805,11.11076 -1.31821,1.51964 -1.88596,1.89327 -3.64424,2.39826 -2.41076,0.69238 -5.09221,0.72258 -7.13008,0.0803 z m 6.07761,-2.26251 c 1.4831,-0.49481 3.18898,-2.10304 4.25625,-4.01259 0.81419,-1.45676 0.83644,-1.68944 0.83332,-8.71722 l -0.003,-7.22051 -1.0289,-1.79409 c -1.41681,-2.47049 -3.21433,-3.60843 -5.97792,-3.7844 -1.18148,-0.0752 -2.74017,0.052 -3.46376,0.28269 -1.98801,0.63387 -3.81374,2.5726 -4.43493,4.70943 -1.28757,4.42909 -0.99422,14.12628 0.51694,17.0884 1.25666,2.46326 2.60444,3.24844 6.19143,3.60696 0.65799,0.0658 1.36567,0.1442 1.57261,0.17429 0.20695,0.0301 0.89912,-0.11975 1.53817,-0.33296 z"
       id="path18"
       transform="scale(0.26458333)" /><path
       style="fill:#00518b;fill-opacity:1;stroke-width:0.341815"
       d="m 460.48146,217.33722 c -0.28862,-0.28861 -0.302,-27.34486 -0.0143,-28.78365 l 0.21364,-1.06817 h 7.43589 c 7.23974,0 7.48598,0.0229 9.33476,0.86933 3.41937,1.56544 5.34289,4.56967 5.35244,8.35967 0.0113,4.49863 -1.32377,6.92846 -4.77599,8.69203 -2.04136,1.04283 -2.57231,1.15496 -6.53771,1.38069 l -4.31591,0.24569 -0.24379,5.05548 -0.24379,5.05549 -1.25115,0.2069 c -1.6791,0.27766 -4.67115,0.26953 -4.95414,-0.0135 z m 13.91264,-16.73943 c 2.60598,-1.24271 2.7447,-5.12022 0.24396,-6.81951 -1.06563,-0.72411 -1.5959,-0.82385 -4.38029,-0.82385 h -3.16789 v 4.10178 4.10178 h 3.06473 c 2.13391,0 3.42153,-0.17015 4.23949,-0.5602 z"
       id="path19"
       transform="scale(0.26458333)" /><path
       style="fill:#00518b;fill-opacity:1;stroke-width:0.341815"
       d="m 487.48482,217.33722 c -0.12533,-0.12533 -0.22787,-6.89326 -0.22787,-15.03985 V 187.4854 h 9.91262 9.91263 v 2.73452 2.73451 h -6.85412 -6.85413 l 0.23804,2.99088 c 0.13093,1.64499 0.40813,3.10389 0.61601,3.24201 0.20788,0.13812 2.64676,0.25348 5.41973,0.25636 l 5.04177,0.005 v 2.36474 c 0,1.30061 0.0934,2.60805 0.20748,2.90543 0.18421,0.48004 -0.44829,0.54068 -5.63995,0.54068 h -5.84742 v 3.24724 3.24724 h 6.8363 6.83629 v 2.90542 2.90543 h -9.68475 c -5.32661,0 -9.78729,-0.10255 -9.91263,-0.22788 z"
       id="path20"
       transform="scale(0.26458333)" /><path
       style="fill:#00518b;fill-opacity:1;stroke-width:0.341815"
       d="m 512.09241,217.06957 c -0.28985,-0.75534 -0.28969,-14.20596 2.7e-4,-22.86382 l 0.22507,-6.72035 h 7.64185 7.64184 l 1.88198,1.06212 c 4.8575,2.7414 6.39861,8.02092 3.75771,12.87312 -0.64159,1.17881 -1.48781,2.11925 -2.45899,2.73277 -0.81441,0.5145 -1.48103,1.05262 -1.48137,1.19583 -3.3e-4,0.14321 1.22993,2.71783 2.73391,5.72138 1.50399,3.00354 2.73452,5.69353 2.73452,5.97774 0,0.71379 -6.20849,0.76048 -6.79721,0.0511 -0.21254,-0.2561 -1.44247,-2.75562 -2.73317,-5.55449 l -2.34674,-5.08886 -2.21145,-0.0999 -2.21146,-0.0999 -0.20909,5.35414 c -0.11501,2.94478 -0.28101,5.42605 -0.3689,5.51394 -0.0879,0.0879 -1.37799,0.2433 -2.86688,0.34535 -2.34651,0.16083 -2.73703,0.10751 -2.93189,-0.40028 z m 13.8815,-17.09695 c 2.01635,-0.84248 2.60852,-3.80111 1.11585,-5.57505 -0.79805,-0.94843 -1.02815,-1.01477 -4.30184,-1.24024 -2.45915,-0.16937 -3.59844,-0.12223 -3.94226,0.16311 -0.35284,0.29283 -0.48357,1.25252 -0.48357,3.54975 0,1.73163 0.10254,3.25096 0.22788,3.37629 0.44812,0.44813 6.1633,0.23616 7.38394,-0.27386 z"
       id="path21"
       transform="scale(0.26458333)" /><path
       style="fill:#00518b;fill-opacity:1;stroke-width:0.341815"
       d="m 539.81097,217.38193 c -0.141,-0.14992 -0.25636,-6.93797 -0.25636,-15.08456 V 187.4854 h 9.91262 9.91263 v 2.73452 2.73451 h -6.66539 -6.66538 v 3.24724 3.24725 h 5.46903 5.46904 v 0.80439 c 0,0.44242 0.0988,1.74986 0.2196,2.90543 l 0.2196,2.10103 h -5.68864 -5.68863 v 3.24724 3.24724 h 6.66538 6.66539 l -0.005,2.30725 c -0.003,1.26898 -0.12961,2.50322 -0.28163,2.74275 -0.20746,0.3269 -2.61443,0.48723 -9.65103,0.64289 -5.15605,0.11406 -9.49,0.0847 -9.631,-0.0652 z"
       id="path22"
       transform="scale(0.26458333)" /><path
       style="fill:#00518b;fill-opacity:1;stroke-width:0.341815"
       d="m 563.3677,217.33722 c -0.12533,-0.12533 -0.22788,-1.40303 -0.22788,-2.83932 v -2.61144 l 6.47235,-9.20965 6.47236,-9.20965 -2.96875,-0.22017 c -1.63282,-0.12109 -4.36964,-0.23646 -6.08185,-0.25636 l -3.11309,-0.0362 -0.2196,-2.10103 c -0.12078,-1.15556 -0.2196,-2.38609 -0.2196,-2.73451 0,-0.60246 0.49392,-0.63349 10.08353,-0.63349 h 10.08354 v 2.83393 2.83392 l -6.32357,8.9659 c -3.47797,4.93125 -6.32358,9.03956 -6.32358,9.12959 0,0.09 2.13197,0.16369 4.7377,0.16369 2.60574,0 5.45135,0.0978 6.32358,0.21737 l 1.58587,0.21737 v 2.63489 2.63488 l -4.87086,0.22283 c -6.33154,0.28965 -15.11941,0.2882 -15.41015,-0.003 z"
       id="path23"
       transform="scale(0.26458333)" /><path
       style="fill:#00518b;fill-opacity:1;stroke-width:0.341815"
       d="m 604.67032,217.1669 c -2.00089,-0.78448 -4.04087,-2.63038 -5.03741,-4.55812 -1.31119,-2.53641 -1.62001,-4.52785 -1.61671,-10.42535 0.003,-5.10534 0.0824,-5.8647 0.83977,-8.01106 1.04815,-2.97059 3.41776,-5.538 5.93727,-6.43285 2.13269,-0.75746 6.90346,-0.80004 8.94475,-0.0798 1.97673,0.69743 4.84603,3.2136 5.61879,4.92726 0.34719,0.76995 0.56874,1.44519 0.49233,1.50054 -0.0764,0.0554 -1.25935,0.60664 -2.62874,1.22506 -2.61162,1.17942 -3.20649,1.13069 -3.66054,-0.29989 -0.28569,-0.90012 -2.73194,-2.40004 -3.91427,-2.40004 -1.82576,0 -3.4339,1.04191 -4.32632,2.80302 -0.74879,1.47766 -0.81983,2.03123 -0.81983,6.38854 0,7.75452 0.85266,9.7594 4.32551,10.1707 2.09509,0.24814 3.55347,-0.4126 4.65108,-2.1072 0.42082,-0.64972 0.98359,-1.18321 1.25059,-1.18554 0.26701,-0.002 1.53599,0.47999 2.81997,1.07182 3.01673,1.3905 3.02907,1.84438 0.12829,4.71937 -1.75692,1.7413 -2.60966,2.31256 -4.18723,2.80506 -2.6453,0.82584 -6.5526,0.77643 -8.8173,-0.11149 z"
       id="path24"
       transform="scale(0.26458333)" /><path
       style="fill:#00518b;fill-opacity:1;stroke-width:0.341815"
       d="m 630.13552,217.11567 c -2.75374,-1.04819 -5.08253,-3.52426 -6.06721,-6.45093 -0.67565,-2.00815 -0.76909,-2.97955 -0.76909,-7.99579 0,-7.43322 0.57935,-9.70206 3.14913,-12.33271 2.40173,-2.45861 4.43755,-3.19266 8.85455,-3.19266 3.07549,0 3.58283,0.0943 5.35317,0.9945 2.55011,1.29677 3.9743,2.82351 4.9794,5.33795 0.69058,1.72759 0.84837,2.86346 1.0248,7.37686 0.30986,7.92683 -0.51016,11.28409 -3.42137,14.00759 -2.35942,2.20728 -3.34336,2.57351 -7.47358,2.78174 -3.26861,0.16479 -3.99107,0.0972 -5.6298,-0.52655 z m 7.30037,-5.57797 c 0.82224,-0.3921 1.40055,-1.0487 1.94217,-2.20507 0.73204,-1.56294 0.76204,-1.94011 0.58975,-7.41396 -0.20752,-6.59289 -0.49214,-7.51943 -2.64761,-8.61907 -1.73015,-0.88266 -3.17685,-0.87003 -4.79937,0.0419 -2.20037,1.23667 -2.55622,2.53738 -2.55622,9.3436 0,5.55126 0.0381,5.88329 0.82053,7.14186 1.33898,2.15395 4.18577,2.88622 6.65075,1.71076 z"
       id="path25"
       transform="scale(0.26458333)" /><path
       style="fill:#00518b;fill-opacity:1;stroke-width:0.341815"
       d="m 651.89772,217.33722 c -0.29209,-0.29209 -0.29945,-24.96496 -0.008,-27.75079 l 0.2196,-2.10103 2.94219,0.002 2.94218,0.002 1.19635,2.93914 c 0.658,1.61652 1.38863,3.01659 1.62362,3.11125 0.235,0.0947 0.43557,0.50174 0.44571,0.90462 0.0302,1.19979 3.90126,9.61969 4.42268,9.61969 0.28789,0 1.8129,-3.06545 3.91167,-7.86294 1.8919,-4.32462 3.56426,-8.05467 3.71636,-8.28901 0.18479,-0.28472 1.2337,-0.42606 3.16178,-0.42606 h 2.88525 v 14.86894 14.86894 h -2.68436 -2.68436 l -0.22106,-2.61518 c -0.12159,-1.43835 -0.22107,-5.05304 -0.22107,-8.03265 0,-2.9796 -0.11536,-5.41403 -0.25636,-5.40984 -0.141,0.004 -1.41215,2.65753 -2.82478,5.89631 l -2.56843,5.88868 -2.24067,0.0997 -2.24067,0.0997 -2.68114,-6.08142 c -1.47463,-3.34478 -2.80986,-6.22754 -2.96719,-6.40614 -0.15733,-0.1786 -0.28605,3.55145 -0.28605,8.28901 v 8.61373 h -2.67755 c -1.47265,0 -2.78009,-0.10255 -2.90543,-0.22788 z"
       id="path26"
       transform="scale(0.26458333)" /><path
       style="fill:#00518b;fill-opacity:1;stroke-width:0.341815"
       d="m 685.39557,217.33722 c -0.12533,-0.12533 -0.22787,-6.89326 -0.22787,-15.03985 V 187.4854 l 7.43447,2.8e-4 c 8.34957,3.1e-4 9.41502,0.21381 11.93936,2.39242 3.17775,2.74253 4.12903,7.42822 2.31327,11.39436 -1.70915,3.73327 -4.50507,5.19032 -10.63475,5.54212 -4.92858,0.28286 -4.54647,-0.22102 -4.55321,6.0041 l -0.005,4.31168 -1.58588,0.21737 c -2.06458,0.28298 -4.39246,0.27776 -4.68073,-0.0105 z m 13.17362,-16.53495 c 1.67973,-0.46652 2.6638,-1.87669 2.6638,-3.81723 0,-1.25279 -0.18542,-1.67949 -1.1109,-2.55641 -1.05522,-0.99986 -1.29505,-1.06432 -4.78541,-1.28627 l -3.6745,-0.23365 v 3.89676 c 0,2.14322 0.10254,3.99931 0.22787,4.12464 0.35709,0.35709 5.27183,0.26302 6.67914,-0.12784 z"
       id="path27"
       transform="scale(0.26458333)" /><path
       style="fill:#00518b;fill-opacity:1;stroke-width:0.341815"
       d="m 706.70112,217.13783 c -10e-4,-0.61383 9.95717,-28.71098 10.36257,-29.2373 0.24221,-0.31446 1.21753,-0.41166 3.42983,-0.34182 l 3.09137,0.0976 3.11887,8.88718 c 1.71537,4.88795 3.20695,9.11791 3.31462,9.39991 1.41639,3.7099 3.695,10.99042 3.52553,11.26463 -0.24232,0.39209 -3.04167,0.46985 -5.03726,0.13993 -1.23909,-0.20484 -1.28862,-0.27187 -2.18096,-2.95133 l -0.91308,-2.74173 -3.8008,0.21903 c -2.09044,0.12046 -4.43892,0.21972 -5.21884,0.22058 l -1.41803,0.002 -0.91958,2.52131 -0.91957,2.52131 -1.55552,0.21321 c -2.61814,0.35886 -4.87815,0.2597 -4.87915,-0.21406 z m 16.74983,-11.29412 c 0,-0.4775 -2.96946,-9.47819 -3.20455,-9.71328 -0.16359,-0.16359 -3.28993,9.0806 -3.28993,9.72792 0,0.31132 0.87897,0.42686 3.24724,0.42686 2.42575,0 3.24724,-0.11169 3.24724,-0.4415 z"
       id="path28"
       transform="scale(0.26458333)" /><path
       style="fill:#00518b;fill-opacity:1;stroke-width:0.341815"
       d="M 737.46535,202.52525 V 187.4854 h 2.99648 2.99647 l 1.06689,1.79453 c 0.58678,0.98699 2.94728,5.17849 5.24555,9.31445 2.29827,4.13596 4.31518,7.66605 4.48201,7.84465 0.17708,0.18956 0.30334,-3.68737 0.30334,-9.31446 v -9.63917 h 2.95838 2.95839 l -0.19454,14.72568 c -0.107,8.09912 -0.26379,14.79492 -0.34842,14.87955 -0.31406,0.31406 -3.64151,0.55491 -4.76208,0.34469 -1.10242,-0.20682 -1.36575,-0.58581 -5.3149,-7.64929 -2.28526,-4.08743 -4.65708,-8.20077 -5.27071,-9.14076 l -1.1157,-1.70908 -0.23225,1.87998 c -0.12774,1.03399 -0.24747,5.12846 -0.26607,9.09883 l -0.0338,7.21883 -1.2818,0.21187 c -0.705,0.11653 -1.93553,0.21357 -2.73452,0.21564 l -1.45272,0.004 z"
       id="path29"
       transform="scale(0.26458333)" /><path
       style="fill:#00518b;fill-opacity:1;stroke-width:0.341815"
       d="m 772.17857,217.2591 c -2.26731,-0.798 -5.27954,-4.07188 -6.08697,-6.6157 -0.81663,-2.57284 -1.10948,-10.96452 -0.49205,-14.09991 0.86311,-4.38297 2.74395,-7.06733 5.99456,-8.55551 1.53833,-0.70427 2.36929,-0.8444 5.00737,-0.8444 3.8664,0 5.54983,0.5428 7.65691,2.46887 1.45984,1.33443 3.07638,3.48748 3.10125,4.13051 0.01,0.25743 -4.86102,2.62962 -5.39957,2.62962 -0.13483,0 -0.51496,-0.4999 -0.84472,-1.1109 -0.66033,-1.22346 -2.84295,-2.64906 -4.05577,-2.64906 -0.42647,0 -1.40909,0.24201 -2.18361,0.5378 -1.10421,0.4217 -1.56786,0.86642 -2.14777,2.06003 -0.66598,1.3708 -0.73955,2.07826 -0.73955,7.11129 0,6.04673 0.24804,7.22187 1.83898,8.71253 1.13872,1.06695 3.76223,1.36451 5.24952,0.59541 0.57698,-0.29837 1.39132,-1.09629 1.80964,-1.77315 0.65039,-1.05236 0.89041,-1.19867 1.65662,-1.00989 1.48894,0.36685 4.8269,1.95359 4.8269,2.29452 0,0.56831 -1.99868,3.2428 -3.15114,4.21661 -2.10212,1.77628 -4.42095,2.55206 -7.54032,2.52265 -1.7309,-0.0163 -3.45933,-0.25495 -4.50028,-0.62132 z"
       id="path30"
       transform="scale(0.26458333)" /></g></svg>
